<?xml version="1.0" encoding="utf-8"?>
<!-- Generator: Adobe Illustrator 25.0.0, SVG Export Plug-In . SVG Version: 6.00 Build 0)  -->
<svg version="1.1" id="圖層_1" xmlns="http://www.w3.org/2000/svg" xmlns:xlink="http://www.w3.org/1999/xlink" x="0px" y="0px"
	 viewBox="0 0 50 50" style="enable-background:new 0 0 50 50;" xml:space="preserve">
<style type="text/css">
	.st0{stroke:#000000;stroke-width:2;}
</style>
<path class="st0" d="M25,38c7.2,0,13-5.8,13-13s-5.8-13-13-13s-13,5.8-13,13C12,32.2,17.8,38,25,38z M25,14c6.1,0,11,4.9,11,11
	s-4.9,11-11,11s-11-4.9-11-11C14,18.9,18.9,14,25,14z"/>
<rect x="24" y="1" class="st0" width="2" height="7"/>
<rect x="24" y="42" class="st0" width="2" height="7"/>
<rect x="42" y="24" class="st0" width="7" height="2"/>
<rect x="1" y="24" class="st0" width="7" height="2"/>
<rect x="36" y="9.5" transform="matrix(0.7071 -0.7071 0.7071 0.7071 4.1394 31.0058)" class="st0" width="7" height="2"/>
<rect x="7" y="38.5" transform="matrix(0.7071 -0.7071 0.7071 0.7071 -24.8525 18.9952)" class="st0" width="7" height="2"/>
<rect x="38.5" y="36" transform="matrix(0.7071 -0.7071 0.7071 0.7071 -16.3592 39.4949)" class="st0" width="2" height="7"/>
<rect x="9.5" y="7" transform="matrix(0.7071 -0.7071 0.7071 0.7071 -4.3507 10.5039)" class="st0" width="2" height="7"/>
</svg>
