<?xml version="1.0" encoding="utf-8"?>
<!-- Generator: Adobe Illustrator 25.0.0, SVG Export Plug-In . SVG Version: 6.00 Build 0)  -->
<svg version="1.1" xmlns="http://www.w3.org/2000/svg" xmlns:xlink="http://www.w3.org/1999/xlink" x="0px" y="0px"
	 viewBox="0 0 100 100" style="enable-background:new 0 0 100 100;" xml:space="preserve">
<style type="text/css">
	.st0{clip-path:url(#SVGID_2_);}
	.st1{opacity:0.72;clip-path:url(#SVGID_4_);}
	.st2{opacity:0.25;fill:url(#SVGID_5_);}
	.st3{fill:url(#SVGID_6_);}
	.st4{fill:url(#SVGID_7_);}
	.st5{opacity:0.2;fill:url(#SVGID_8_);}
	.st6{fill:none;}
	.st7{opacity:0.15;fill:url(#SVGID_9_);}
	.st8{opacity:0.5;fill:url(#SVGID_10_);}
	.st9{fill:url(#SVGID_11_);}
	.st10{opacity:3.000000e-02;fill:none;stroke:#FFFFFF;stroke-width:2;stroke-miterlimit:10;}
	.st11{opacity:0.5;fill:url(#SVGID_12_);}
	.st12{fill:url(#SVGID_13_);}
	.st13{fill:url(#SVGID_14_);}
	.st14{fill:url(#SVGID_15_);}
	.st15{fill:url(#SVGID_16_);}
	.st16{fill:url(#SVGID_17_);}
	.st17{filter:url(#Adobe_OpacityMaskFilter);}
	.st18{fill:#FFFFFF;stroke:#FFFFFF;stroke-miterlimit:10;}
	.st19{mask:url(#SVGID_18_);}
	.st20{opacity:9.000000e-02;clip-path:url(#SVGID_20_);}
	.st21{filter:url(#Adobe_OpacityMaskFilter_1_);}
	.st22{fill:#FFFFFF;}
	.st23{fill:none;stroke:#FFFFFF;stroke-miterlimit:10;}
	.st24{fill:#0095A2;}
	.st25{fill:#D60000;}
	.st26{opacity:0.83;}
	.st27{fill:none;stroke:#FFFFFF;stroke-width:4;stroke-miterlimit:10;}
	.st28{clip-path:url(#SVGID_22_);}
	.st29{fill:url(#SVGID_23_);}
	.st30{fill:#1C2B87;}
	.st31{clip-path:url(#SVGID_25_);}
	.st32{clip-path:url(#SVGID_27_);}
	.st33{opacity:0.14;clip-path:url(#SVGID_27_);}
	.st34{opacity:0.49;fill:#FFFFFF;}
	.st35{opacity:0.25;fill:#FFFFFF;}
	.st36{opacity:0.34;fill:#FFFFFF;}
	.st37{opacity:0.17;fill:#FFFFFF;}
	.st38{opacity:0.32;fill:#FFFFFF;}
	.st39{opacity:0.49;}
	.st40{filter:url(#Adobe_OpacityMaskFilter_2_);}
	.st41{clip-path:url(#SVGID_27_);fill:#FFFFFF;}
	.st42{opacity:0.61;clip-path:url(#SVGID_27_);}
	.st43{opacity:0.61;clip-path:url(#SVGID_27_);mask:url(#SVGID_28_);}
	.st44{opacity:0.49;fill:url(#SVGID_29_);}
	.st45{opacity:0.44;fill:url(#SVGID_30_);}
	.st46{opacity:0.47;fill:url(#SVGID_31_);}
	.st47{opacity:0.11;fill:url(#SVGID_32_);}
	.st48{opacity:0.1;}
	.st49{filter:url(#Adobe_OpacityMaskFilter_3_);}
	.st50{mask:url(#SVGID_33_);}
	.st51{fill:#231815;}
	.st52{opacity:0.25;}
	.st53{opacity:0.71;}
	.st54{filter:url(#Adobe_OpacityMaskFilter_4_);}
	.st55{opacity:0.48;mask:url(#SVGID_34_);}
	.st56{filter:url(#Adobe_OpacityMaskFilter_5_);}
	.st57{opacity:0.29;}
	.st58{opacity:0.67;clip-path:url(#SVGID_36_);}
	.st59{filter:url(#Adobe_OpacityMaskFilter_6_);}
	.st60{mask:url(#SVGID_37_);}
	.st61{fill:url(#SVGID_38_);}
	.st62{opacity:0.54;clip-path:url(#SVGID_36_);fill:#FFFFFF;}
	.st63{clip-path:url(#SVGID_36_);}
	.st64{opacity:0.76;clip-path:url(#SVGID_36_);}
	.st65{opacity:0.25;fill:url(#SVGID_39_);}
	.st66{fill:url(#SVGID_40_);}
	.st67{fill:url(#SVGID_41_);}
	.st68{opacity:0.2;fill:url(#SVGID_42_);}
	.st69{opacity:0.15;fill:url(#SVGID_43_);}
	.st70{opacity:0.5;fill:url(#SVGID_44_);}
	.st71{fill:url(#SVGID_45_);}
	.st72{opacity:0.5;fill:url(#SVGID_46_);}
	.st73{fill:url(#SVGID_47_);}
	.st74{fill:url(#SVGID_48_);}
	.st75{fill:url(#SVGID_49_);}
	.st76{fill:url(#SVGID_50_);}
	.st77{fill:url(#SVGID_51_);}
	.st78{fill:#9D1F15;}
</style>
<g id="圖層_1">
</g>
<g id="圖層_2">
	<g>
		<path class="st78" d="M36.1,14c2.7,5.9,5.6,11.2,7.6,16.9c2.1,5.8,5.6,9.4,11.4,11.4c5.7,2,11,4.9,17.1,7.7
			c-5.3,2.4-9.9,5.1-14.8,6.6c-7.6,2.5-12.4,7.2-14.8,14.8c-1.6,4.9-4.2,9.5-6.6,14.8c-2-4.4-3.8-8.3-5.6-12.1
			c-2-4.3-2.9-9.6-6.3-12.6c-3.3-3-8.2-4.1-12.5-6.1C8,53.8,4.2,52.1,0.3,50.3c0.5-1.2,1.5-1.3,2.3-1.6C9,45.8,15.4,42.8,21.8,40
			c2-0.9,3.2-2,4.1-4c3.1-7,6.3-14,9.5-21C35.5,14.8,35.7,14.7,36.1,14z M50.3,50.6c-0.1-0.3-0.2-0.5-0.4-0.8
			c-3-1.4-6.7-2.3-8.9-4.5c-2.3-2.3-3.2-6-5-9.7c-1,2.2-2,3.9-2.6,5.6c-1,3.1-2.9,5-6.1,6.2c-1.8,0.6-4.6,1-4.7,2.8
			c-0.1,1.2,3,1.9,4.7,2.5c3.1,1.1,5,3.1,6.1,6.1c0.6,1.8,1.2,3.7,3.2,5.6C38.1,56.6,42.7,52.1,50.3,50.6z"/>
		<path class="st78" d="M81.6,0c1.7,3.8,3.2,7,4.6,10.2c0.7,1.6,1.7,2.6,3.3,3.3c3.2,1.3,6.3,2.8,10.2,4.6c-3.7,1.7-6.8,3.2-10,4.5
			c-1.7,0.7-2.7,1.8-3.5,3.5c-1.3,3.1-2.8,6.2-4.5,10c-1.7-3.6-3.2-6.7-4.5-9.9c-0.7-1.8-1.9-2.9-3.7-3.6c-3.1-1.3-6.2-2.8-9.8-4.5
			c3.8-1.7,7-3.2,10.2-4.6c1.5-0.6,2.5-1.6,3.1-3.1C78.4,7.1,79.9,3.9,81.6,0z"/>
		<path class="st78" d="M99.6,82C96,83.7,93,85.2,90,86.4c-2,0.8-3.2,2.1-4,4.1c-1.2,3-2.7,6-4.3,9.5c-1.7-3.6-3.2-6.6-4.4-9.7
			c-0.8-1.9-2-3-3.9-3.8c-3.1-1.2-6-2.7-9.7-4.4c3.6-1.7,6.7-3.2,9.8-4.5c1.8-0.7,2.9-1.9,3.6-3.7c1.3-3.1,2.8-6.2,4.5-9.9
			c1.7,3.8,3.3,7,4.6,10.3c0.6,1.5,1.6,2.5,3.1,3.1C92.6,78.8,95.8,80.3,99.6,82z"/>
	</g>
</g>
</svg>
